# 3ds Max Wavefront OBJ Exporter v0.97b - (c)2007 guruware
# File Created: 07.05.2015 21:45:33

mtllib Rock_3.mtl

#
# object Rock_3
#

v  0.2174 1.4625 -1.3728
v  0.1779 0.7708 -1.1642
v  0.0000 1.0079 -1.2360
v  0.3755 0.7510 -1.2055
v  -0.7313 1.5020 -1.1269
v  -0.1581 1.5613 -1.3048
v  0.3660 1.7590 -1.3044
v  0.0988 1.9108 -0.8894
v  0.4941 0.5139 -1.0159
v  -0.5336 1.0241 -1.0277
v  0.6700 1.4625 -0.8696
v  0.2569 0.1979 -0.7905
v  -0.3360 0.4546 -0.8953
v  0.1383 0.3953 -0.8532
v  -0.9882 1.3637 -1.0202
v  -0.8301 0.9707 -0.9289
v  -1.2434 1.5613 -0.4348
v  0.7905 1.9171 -0.4999
v  0.0395 0.0593 -0.7059
v  -0.3953 0.2372 -0.8297
v  -0.5139 0.1765 -0.6720
v  -0.8154 0.2965 -0.5534
v  -0.3557 1.7970 -0.5534
v  -1.0200 0.5929 -0.1779
v  0.8681 0.4743 -0.3557
v  1.0685 1.5416 -0.2174
v  -0.1581 1.9885 -0.2965
v  -0.6720 0.0565 -0.2174
v  0.1581 -0.0338 -0.3557
v  -1.3363 0.9684 0.1186
v  -1.0616 1.6601 -0.1779
v  0.7313 -0.0991 0.1186
v  1.0277 0.3046 -0.0791
v  1.0357 1.9171 -0.2174
v  -0.8301 -0.0191 -0.0198
v  -1.0672 0.1626 0.0198
v  1.0770 0.5731 -0.0000
v  -0.4546 2.0421 0.0198
v  0.1779 1.9226 -0.0988
v  0.4743 -0.2347 0.0395
v  -0.2767 -0.2828 0.2965
v  -0.4869 -0.1186 0.1383
v  -1.0448 0.1186 -0.0988
v  -0.9289 1.8745 0.1186
v  0.9289 1.6997 0.1812
v  0.5139 2.0083 0.4546
v  -0.6127 0.2561 0.4150
v  1.1097 0.2965 0.3360
v  0.8787 1.2649 0.1779
v  -1.0591 1.2846 0.3162
v  -0.8647 1.6997 0.4743
v  0.7708 0.4859 0.6522
v  -1.0870 0.3910 0.2372
v  -1.1265 0.5878 0.6127
v  0.8712 0.6720 0.5731
v  -0.0593 2.0224 0.3953
v  0.1976 2.0239 0.4941
v  -0.3953 0.0791 0.7453
v  0.3162 0.6720 0.9798
v  -0.0593 0.7313 1.2808
v  -1.0771 1.2056 1.0672
v  -1.0535 0.9091 1.0475
v  0.7973 1.2846 0.5929
v  -0.8498 1.5565 0.9882
v  -0.8894 0.5361 0.9882
v  0.8364 1.0277 0.7313
v  -0.9596 1.6008 0.8301
v  0.4941 1.8578 0.6287
v  -0.4941 1.6024 0.9487
v  0.0791 1.6408 1.1265
v  0.0000 1.8380 0.6487
v  0.5534 1.1858 1.0016
v  0.2569 1.7194 1.0467
v  -0.6522 0.4546 1.2542
v  -0.0988 1.1789 1.3637
v  -0.9882 1.1858 1.2273
v  -0.2569 1.2846 1.2128
v  -0.7510 0.9684 1.3447
v  -0.5534 0.7708 1.4697
# 79 vertices

vn 0.0106 -0.1264 -0.9919
vn -0.1906 -0.4507 -0.8721
vn -0.2611 -0.2820 -0.9232
vn 0.6431 -0.1313 -0.7544
vn -0.4061 0.6117 -0.6789
vn -0.2910 0.3927 -0.8724
vn 0.5439 0.4660 -0.6979
vn -0.1636 0.9390 -0.3025
vn 0.7088 -0.4425 -0.5494
vn -0.3066 -0.3477 -0.8861
vn 0.8475 -0.0169 -0.5305
vn 0.1442 -0.7034 -0.6960
vn -0.2469 -0.3983 -0.8834
vn -0.0429 -0.4965 -0.8670
vn -0.6933 -0.1348 -0.7079
vn -0.7732 -0.3458 -0.5317
vn -0.8320 0.4409 -0.3368
vn 0.3395 0.8993 -0.2756
vn -0.0787 -0.8707 -0.4854
vn -0.0772 -0.4895 -0.8686
vn -0.3832 -0.6172 -0.6872
vn -0.7579 -0.4044 -0.5120
vn -0.3405 0.8918 -0.2980
vn -0.8697 -0.2467 -0.4275
vn 0.7682 -0.3482 -0.5372
vn 0.9636 -0.0013 -0.2674
vn -0.0435 0.9922 -0.1166
vn -0.2404 -0.9019 -0.3589
vn 0.2071 -0.8660 -0.4552
vn -0.9955 -0.0594 -0.0734
vn -0.7034 0.7108 0.0022
vn 0.5459 -0.8160 -0.1903
vn 0.7860 -0.4742 -0.3966
vn 0.6995 0.7096 0.0844
vn -0.3385 -0.9406 0.0246
vn -0.9083 -0.4183 -0.0090
vn 0.9929 0.1036 0.0583
vn -0.2346 0.9707 0.0527
vn 0.0585 0.9958 -0.0704
vn 0.2258 -0.9149 0.3345
vn 0.0706 -0.8703 0.4874
vn -0.4020 -0.9138 -0.0583
vn -0.4761 -0.7511 -0.4573
vn -0.5560 0.8227 0.1180
vn 0.8571 0.2450 0.4532
vn 0.2248 0.9690 0.1027
vn -0.5786 -0.7296 0.3647
vn 0.8510 -0.3576 0.3846
vn 0.9473 0.0814 0.3098
vn -0.8815 0.4536 0.1313
vn -0.7087 0.6545 0.2633
vn 0.3287 -0.5901 0.7374
vn -0.7259 -0.5912 0.3514
vn -0.8322 -0.4709 0.2929
vn 0.9330 0.1589 0.3228
vn -0.1071 0.9619 0.2514
vn -0.0005 0.9594 0.2819
vn -0.0317 -0.8254 0.5636
vn 0.4011 -0.5555 0.7284
vn 0.4028 -0.4813 0.7785
vn -0.9606 0.1919 0.2012
vn -0.7791 -0.2967 0.5523
vn 0.8348 0.2797 0.4742
vn -0.1574 0.7590 0.6318
vn -0.6541 -0.7097 0.2618
vn 0.7987 -0.0515 0.5995
vn -0.8630 0.4887 0.1281
vn 0.6206 0.5300 0.5779
vn -0.1838 0.8232 0.5372
vn 0.0151 0.6670 0.7449
vn -0.2019 0.8521 0.4829
vn 0.6272 0.0998 0.7724
vn 0.5922 0.4303 0.6813
vn -0.2492 -0.6531 0.7151
vn 0.2427 0.2051 0.9482
vn -0.5496 0.3043 0.7781
vn -0.1764 0.5510 0.8156
vn -0.3403 0.2723 0.9000
vn 0.0316 -0.1730 0.9844
# 79 vertex normals

vt 0.5206 0.9441 0.0000
vt 0.5431 0.8212 0.0000
vt 0.5669 0.8679 0.0000
vt 0.5121 0.8172 0.0000
vt 0.6894 0.9590 0.0000
vt 0.5836 0.9673 0.0000
vt 0.4854 0.9908 0.0000
vt 0.9027 0.1098 0.0000
vt 0.9239 0.2146 0.0000
vt 0.7998 0.1047 0.0000
vt 0.4919 0.7640 0.0000
vt 0.6653 0.8706 0.0000
vt 0.4109 0.9186 0.0000
vt 0.8455 0.0292 0.0000
vt 0.5447 0.7029 0.0000
vt 0.6417 0.7662 0.0000
vt 0.5621 0.7405 0.0000
vt 0.7383 0.9358 0.0000
vt 0.7193 0.8630 0.0000
vt 0.9395 0.2668 0.0000
vt 0.8596 0.3517 0.0000
vt 0.6840 0.0301 0.0000
vt 0.5888 0.6807 0.0000
vt 0.6559 0.7298 0.0000
vt 0.6850 0.7126 0.0000
vt 0.7416 0.7317 0.0000
vt 0.7962 0.2035 0.0000
vt 0.9701 0.5596 0.0000
vt 0.8864 0.5297 0.0000
vt 0.9938 0.4256 0.0000
vt 0.9760 0.3520 0.0000
vt 0.3621 0.7291 0.0000
vt 0.2854 0.8948 0.0000
vt 0.7313 0.1914 0.0000
vt 0.5686 0.5477 0.0000
vt 0.5117 0.6279 0.0000
vt 0.5198 0.4766 0.0000
vt 0.4980 0.6786 0.0000
vt 0.4517 0.6059 0.0000
vt 0.5935 0.4942 0.0000
vt 0.8026 0.4815 0.0000
vt 0.8009 0.3445 0.0000
vt 0.3213 0.9833 0.0000
vt 0.3268 0.6121 0.0000
vt 0.3088 0.6928 0.0000
vt 0.2762 0.9478 0.0000
vt 0.5052 0.4297 0.0000
vt 0.8707 0.6113 0.0000
vt 0.2833 0.7271 0.0000
vt 0.7065 0.2592 0.0000
vt 0.6733 0.1549 0.0000
vt 0.3629 0.5928 0.0000
vt 0.4056 0.4797 0.0000
vt 0.4476 0.4619 0.0000
vt 0.5481 0.4137 0.0000
vt 0.8933 0.6137 0.0000
vt 0.7367 0.3362 0.0000
vt 0.2118 0.9085 0.0000
vt 0.5604 0.1553 0.0000
vt 0.5367 0.3940 0.0000
vt 0.5214 0.3766 0.0000
vt 0.4173 0.3818 0.0000
vt 0.2395 0.6600 0.0000
vt 0.2200 0.8361 0.0000
vt 0.7416 0.4342 0.0000
vt 0.6835 0.3763 0.0000
vt 0.1359 0.9722 0.0000
vt 0.1970 0.5774 0.0000
vt 0.4868 0.3270 0.0000
vt 0.8170 0.5901 0.0000
vt 0.7405 0.5770 0.0000
vt 0.1751 0.7225 0.0000
vt 0.6195 0.2349 0.0000
vt 0.5832 0.2060 0.0000
vt 0.3438 0.4097 0.0000
vt 0.1849 0.4698 0.0000
vt 0.1895 0.3832 0.0000
vt 0.4289 0.2735 0.0000
vt 0.6306 0.5013 0.0000
vt 0.6499 0.5472 0.0000
vt 0.1468 0.8301 0.0000
vt 0.6041 0.4278 0.0000
vt 0.1657 0.5980 0.0000
vt 0.3463 0.2855 0.0000
vt 0.1331 0.7802 0.0000
vt 0.6373 0.4214 0.0000
vt 0.1071 0.9375 0.0000
vt 0.5682 0.3680 0.0000
vt 0.4897 0.2951 0.0000
vt 0.5715 0.2590 0.0000
vt 0.5258 0.1812 0.0000
vt 0.6715 0.6148 0.0000
vt 0.1048 0.5580 0.0000
vt 0.0886 0.4845 0.0000
vt 0.0656 0.8103 0.0000
vt 0.4855 0.2584 0.0000
vt 0.2824 0.3104 0.0000
vt 0.6207 0.6535 0.0000
vt 0.1138 0.3611 0.0000
vt 0.6010 0.5131 0.0000
vt 0.0247 0.3867 0.0000
vt 0.0238 0.2810 0.0000
vt 0.0895 0.3295 0.0000
vt 0.0058 0.4180 0.0000
vt 0.0256 0.9083 0.0000
vt 0.5799 0.5700 0.0000
vt 0.0433 0.2202 0.0000
vt 0.2517 0.2829 0.0000
vt 0.1884 0.2930 0.0000
vt 0.1598 0.2517 0.0000
vt 0.1223 0.2060 0.0000
# 111 texture coords

g Rock_3
usemtl VoxMtl
s 1
f 1/1/1 2/2/2 3/3/3 
f 2/2/2 1/1/1 4/4/4 
f 5/5/5 6/6/6 3/3/3 
f 6/6/6 7/7/7 1/1/1 
f 6/6/6 1/1/1 3/3/3 
f 6/8/6 5/9/5 8/10/8 
f 4/4/4 9/11/9 2/2/2 
f 7/7/7 4/4/4 1/1/1 
f 10/12/10 5/5/5 3/3/3 
f 4/4/4 11/13/11 9/11/9 
f 8/10/8 7/14/7 6/8/6 
f 9/11/9 12/15/12 2/2/2 
f 13/16/13 10/12/10 2/2/2 
f 13/16/13 2/2/2 14/17/14 
f 2/2/2 10/12/10 3/3/3 
f 15/18/15 10/12/10 16/19/16 
f 11/13/11 4/4/4 7/7/7 
f 15/18/15 5/5/5 10/12/10 
f 5/9/5 15/20/15 17/21/17 
f 18/22/18 7/14/7 8/10/8 
f 14/17/14 19/23/19 20/24/20 
f 20/24/20 13/16/13 14/17/14 
f 14/17/14 2/2/2 12/15/12 
f 21/25/21 10/12/10 13/16/13 
f 21/25/21 22/26/22 16/19/16 
f 10/12/10 21/25/21 16/19/16 
f 23/27/23 8/10/8 5/9/5 
f 21/25/21 20/24/20 19/23/19 
f 19/23/19 14/17/14 12/15/12 
f 20/24/20 21/25/21 13/16/13 
f 22/28/22 24/29/24 16/30/16 
f 17/21/17 15/31/15 16/30/16 
f 25/32/25 11/13/11 26/33/26 
f 17/21/17 23/27/23 5/9/5 
f 23/27/23 27/34/27 8/10/8 
f 21/35/21 19/36/19 28/37/28 
f 12/38/12 29/39/29 19/36/19 
f 22/40/22 21/35/21 28/37/28 
f 12/38/12 9/11/9 29/39/29 
f 25/32/25 29/39/29 9/11/9 
f 11/13/11 25/32/25 9/11/9 
f 24/29/24 30/41/30 16/30/16 
f 23/27/23 17/21/17 31/42/31 
f 7/7/7 18/43/18 11/13/11 
f 27/34/27 18/22/18 8/10/8 
f 32/44/32 25/32/25 33/45/33 
f 16/30/16 30/41/30 17/21/17 
f 18/43/18 26/33/26 11/13/11 
f 18/43/18 34/46/34 26/33/26 
f 35/47/35 28/37/28 29/39/29 
f 28/37/28 19/36/19 29/39/29 
f 32/44/32 29/39/29 25/32/25 
f 24/29/24 22/28/22 36/48/36 
f 37/49/37 33/45/33 25/32/25 
f 26/33/26 37/49/37 25/32/25 
f 30/41/30 31/42/31 17/21/17 
f 23/27/23 31/42/31 38/50/38 
f 23/27/23 38/50/38 27/34/27 
f 39/51/39 18/22/18 27/34/27 
f 40/52/40 41/53/41 29/39/29 
f 29/39/29 42/54/42 35/47/35 
f 35/47/35 43/55/43 28/37/28 
f 43/55/43 22/40/22 28/37/28 
f 43/56/43 36/48/36 22/28/22 
f 31/42/31 44/57/44 38/50/38 
f 26/33/26 34/46/34 45/58/45 
f 38/50/38 39/51/39 27/34/27 
f 39/51/39 46/59/46 18/22/18 
f 41/53/41 42/54/42 29/39/29 
f 29/39/29 32/44/32 40/52/40 
f 43/60/43 35/47/35 36/61/36 
f 47/62/47 36/61/36 35/47/35 
f 35/47/35 42/54/42 47/62/47 
f 33/45/33 48/63/48 32/44/32 
f 37/49/37 48/63/48 33/45/33 
f 36/48/36 30/41/30 24/29/24 
f 49/64/49 37/49/37 26/33/26 
f 30/41/30 50/65/50 31/42/31 
f 45/58/45 49/64/49 26/33/26 
f 50/65/50 51/66/51 31/42/31 
f 44/57/44 51/66/51 38/50/38 
f 18/43/18 46/67/46 34/46/34 
f 40/52/40 32/44/32 52/68/52 
f 47/62/47 53/69/53 36/61/36 
f 36/48/36 53/70/53 30/41/30 
f 30/41/30 53/70/53 54/71/54 
f 37/49/37 55/72/55 48/63/48 
f 37/49/37 49/64/49 55/72/55 
f 31/42/31 51/66/51 44/57/44 
f 56/73/56 39/51/39 38/50/38 
f 46/59/46 39/51/39 57/74/57 
f 52/68/52 41/53/41 40/52/40 
f 41/53/41 47/62/47 42/54/42 
f 58/75/58 59/76/59 60/77/60 
f 41/53/41 52/68/52 59/76/59 
f 52/68/52 32/44/32 48/63/48 
f 54/78/54 53/69/53 47/62/47 
f 61/79/61 54/71/54 62/80/62 
f 54/71/54 61/79/61 30/41/30 
f 50/65/50 30/41/30 61/79/61 
f 49/64/49 45/58/45 63/81/63 
f 38/50/38 51/66/51 64/82/64 
f 57/74/57 39/51/39 56/73/56 
f 45/58/45 34/46/34 46/67/46 
f 48/63/48 55/83/55 52/68/52 
f 47/62/47 65/84/65 54/78/54 
f 55/72/55 49/64/49 66/85/66 
f 66/85/66 49/64/49 63/81/63 
f 67/86/67 51/66/51 50/65/50 
f 63/81/63 45/58/45 68/87/68 
f 67/86/67 64/82/64 51/66/51 
f 69/88/69 38/50/38 64/82/64 
f 70/89/70 57/74/57 71/90/71 
f 45/58/45 46/67/46 68/87/68 
f 71/90/71 57/74/57 56/73/56 
f 46/59/46 57/74/57 68/91/68 
f 58/75/58 47/62/47 41/53/41 
f 59/76/59 58/75/58 41/53/41 
f 58/75/58 65/84/65 47/62/47 
f 65/92/65 62/80/62 54/71/54 
f 59/76/59 52/68/52 66/93/66 
f 66/93/66 52/68/52 55/83/55 
f 67/86/67 50/65/50 61/79/61 
f 57/74/57 70/89/70 68/91/68 
f 72/94/72 59/76/59 66/93/66 
f 59/76/59 72/94/72 60/77/60 
f 63/81/63 72/95/72 66/85/66 
f 56/73/56 38/50/38 69/88/69 
f 69/88/69 71/90/71 56/73/56 
f 70/89/70 71/90/71 69/88/69 
f 72/95/72 63/81/63 68/87/68 
f 68/91/68 70/89/70 73/96/73 
f 58/75/58 74/97/74 65/84/65 
f 58/75/58 60/77/60 74/97/74 
f 65/92/65 74/98/74 62/80/62 
f 75/99/75 60/77/60 72/94/72 
f 67/86/67 61/79/61 76/100/76 
f 76/100/76 64/82/64 67/86/67 
f 70/101/70 69/102/69 77/103/77 
f 75/99/75 70/101/70 77/103/77 
f 70/101/70 72/94/72 73/104/73 
f 75/99/75 72/94/72 70/101/70 
f 72/95/72 68/87/68 73/105/73 
f 61/79/61 62/80/62 76/100/76 
f 78/106/78 76/100/76 62/80/62 
f 77/103/77 69/102/69 64/107/64 
f 74/108/74 60/77/60 79/109/79 
f 62/80/62 74/98/74 78/106/78 
f 74/108/74 79/109/79 78/110/78 
f 79/109/79 60/77/60 75/99/75 
f 78/110/78 64/107/64 76/111/76 
f 77/103/77 64/107/64 78/110/78 
f 77/103/77 78/110/78 75/99/75 
f 79/109/79 75/99/75 78/110/78 
# 154 faces

